# xmcd CD database file
#
# Track frame offsets:
#	150
#	17975
#	31458
#	41177
#	58409
#	72821
#	93348
#	98001
#	115832
#	131604
#	152757
#	167372
#	174632
#	187829
#	190823
#	214551
#	235448
#	251287
#
# Disc length: 3612 seconds
#
# Revision: 3
# Processed by: cddbd v1.5.2PL0 Copyright (c) Steve Scherf et al.
# Submitted via: CDex 1.51
#
DISCID=f10e1a12
DTITLE=Götz Alsmann und die WDR Bigband - Winterwunderwelten CD03
DYEAR=2016
DGENRE=Jazz
TTITLE0=Lass es schnei'n (Let It Snow)
TTITLE1=Warm im Dezember (Warm In December)
TTITLE2=Moderation
TTITLE3=O Tannenbaum
TTITLE4=Eine Muh, eine Mäh, eine Täterätätä
TTITLE5=Der Weihnachtsmann
TTITLE6=Moderation
TTITLE7=Die Frau vom Nikolaus
TTITLE8=Winter in Kanada
TTITLE9=Winterwunderwelt
TTITLE10=Oh du fröhliche
TTITLE11=Bandvorstellung
TTITLE12=Jingle-Bells (Instrumental)
TTITLE13=Moderation
TTITLE14=Morgen, Kinder, wird´s was geben
TTITLE15=Viele bunte Päckchen (The Christmas Song)
TTITLE16=Der Weihnachtsumtausch
TTITLE17=Weiße Weihnacht (White Christmas)
EXTD=YEAR: 2016
EXTT0=
EXTT1=
EXTT2=
EXTT3=
EXTT4=
EXTT5=
EXTT6=
EXTT7=
EXTT8=
EXTT9=
EXTT10=
EXTT11=
EXTT12=
EXTT13=
EXTT14=
EXTT15=
EXTT16=
EXTT17=
PLAYORDER=
